<?xml version="1.0" encoding="UTF-8"?><svg id="Layer_2" xmlns="http://www.w3.org/2000/svg" viewBox="0 0 286.23 756.42"><defs><style>.cls-1{}</style></defs><g id="colored"><g id="arms"><path class="cls-1" d="M47.42,645.16c-9.9,23.12-24.79,51.42-36.43,73.72-1.36,2.61-2.78,5.39-2.61,8.33,.27,4.77,4.38,8.5,9.15,8.8s9.36-2.18,12.76-5.53,5.84-7.54,8.39-11.58c4.93-7.82,12.06-21.84,16.27-30.07"/><path class="cls-1" d="M47.42,645.16c-9.31,9.28-14.62,16.29-27.3,20.08-3.92,1.17-8.22,1.55-12.11,.3s-7.24-4.36-7.88-8.19c-1.08-6.45,5.16-11.61,10.15-16.13,14.62-13.22,22.99-31.7,37.84-44.69,8.56-7.49,18.92-12.84,28.38-19.29,9.46-6.45,18.38-14.5,22.03-24.96,0,0,27.12-78.44,40.93-134.62,13.81-56.18,31.56-92.27,34.72-104.92,3.16-12.65,15.09-115.52,20.61-141.56,5.52-26.04-7.5-102.32,22.88-139.52,10.51-12.87,28.2-23.03,47.89-31.65,14.52,21.97,15.12,64.1,3.51,99.05,6.07,15.6,12.69,44.33,11.32,68.63-1.94,34.47,5.84,62.09,5.84,62.09,0,47.96-21.34,108.43-32.68,145.84-9.95,32.8-81.98,160.34-81.98,160.34-7.13,17.97-14.29,36.02-18.64,54.76-5.41,23.28-3.96,36.92-12.51,59.35-4.15,10.88-10.86,20.91-13.55,32.19-1.71,7.16-5.09,29.66-6.88,36.82-1.69,6.74-2.2,10.31-3.96,14.95s-11.66,8.87-15.07,2.18c-2.05-4.02,3.28-54.08,3.92-58.48-3.75,17.3-6.25,33.92-10,51.22-.95,4.37-4.58,14.38-6.95,18.17s-5.08,5.93-9.55,5.83c-1.71-.04-4.7-.56-6.01-1.67-2.14-1.82-3.25-5.71-3.41-8.51-.56-9.56,7.19-36.95,8.26-46.43l5.51-19.6c-3.89,14.34-8.41,28.51-13.55,42.46-4.13,11.21-7.25,25.02-15.97,33.19-1.88,1.76-4.03,3.39-6.56,3.83-5.76,1-10.18-1.38-10.72-7.2s2.93-16.79,5.29-22.14c2.12-4.8,11.9-33.11,13.74-38.02"/></g></g></svg>