<?xml version="1.0" encoding="UTF-8"?><svg id="Layer_2" xmlns="http://www.w3.org/2000/svg" viewBox="0 0 887.78 1889.37"><defs><style>.cls-1{stroke-linecap:round;}.cls-1,.cls-2{fill:none;stroke-miterlimit:10;stroke-width:8px;}.cls-3{}</style></defs><g id="body"><path class="cls-2" d="M528.2,87.09c0,114.76-37.69,157.74-84.19,157.74s-84.19-43.37-84.19-157.74c0-47.27,37.69-85.59,84.19-85.59s84.19,38.32,84.19,85.59Z"/><path class="cls-3" d="M102.85,922.3c-2.85,4.83-5.79,9.77-10.01,13.55-4.96,4.44-11.07,5.54-17.34,6.94-9.52,2.14-17.01,7.21-23.91,13.96s-12.75,14.26-20.64,19.63c-4.57,3.11-9.83,5.49-15.42,5.77-7.27,.37-15.55-5.28-11.33-13.19,2.66-4.99,7.88-8.4,11.78-12.35s7.63-8.59,11.08-13.17c7.17-9.51,13.77-19.6,22.66-27.65,16.54-14.96,42.62-22.22,51.33-44.64,3.11-7.99,5.56-16.29,8.25-24.42,5.98-18.12,11.77-36.31,17.29-54.57,6.4-21.17,12.06-42.49,17.61-63.89,5.66-21.81,12.63-43.24,20.55-64.32,4.16-11.07,9.68-22.2,12.43-33.74,2.22-9.31,3.1-19.07,4.4-28.53,4.32-31.47,8.12-63.03,12.97-94.43,1.62-10.5,4.11-20.89,4.59-31.52,.75-16.57,0-33.19,.63-49.77,.7-18.55,2.49-37.56,8.97-55.09,6.01-16.26,16.69-28.31,31.14-37.63,29.88-19.26,65.2-28.05,98-40.87,12.53-4.9,25.29-10.2,34.52-20.36,11.01-12.12,16.87-28.28,19.1-44.3,.41-2.96,.77-5.97,.82-8.96,.03-1.93-2.97-1.93-3,0-.17,11.28-3.12,23.08-7.68,33.33-4.02,9.05-9.8,17.49-17.59,23.71-4.65,3.71-10.1,6.42-15.49,8.88-32.05,14.64-66.79,22.49-98.1,38.97-14.01,7.37-27.77,16.57-36.55,30.05-9.77,14.99-13.61,33.2-15.6,50.72s-1.88,36.86-1.91,55.31c-.01,7.1,0,14.24-.61,21.32-.42,4.92-1.54,9.71-2.39,14.57-5.34,30.72-8.88,61.78-13.02,92.68-1.65,12.29-3.16,24.64-5.28,36.86-1.6,9.24-5.52,17.91-8.9,26.61-7.5,19.35-14.46,38.89-20.26,58.83-6.51,22.34-11.72,45.03-18.26,67.37-8.9,30.39-18.41,60.69-28.88,90.59-7.23,20.66-30.18,28.65-46.2,40.97-9.51,7.31-16.65,16.78-23.68,26.38-3.61,4.93-7.22,9.87-11.25,14.47s-8.46,8.06-12.47,12.33c-3.05,3.25-5.78,7.33-5.1,12.01,.61,4.17,3.82,7.46,7.58,9.1,9.31,4.05,20.17-1.12,27.54-6.86,7.35-5.73,13.17-13.09,19.93-19.46,3.49-3.28,7.25-6.31,11.52-8.51,5.42-2.79,11.36-3.37,17.15-5,10.49-2.95,16.34-11.22,21.62-20.17,.98-1.67-1.61-3.18-2.59-1.51h0Z"/><path class="cls-3" d="M104.89,994.67c-2.12,14.97-3.32,30.22-4.15,45.31-.19,3.38-.37,6.77-.27,10.16,.08,2.67,.41,4.84,2.65,6.65,3.58,2.91,8.87,1.67,12.33-.8,4.23-3.03,4.96-8.57,6.06-13.32,2.45-10.59,4.31-21.23,6.2-31.93,.86-4.89,1.64-9.84,3.16-14.58,2.48-7.73,6.52-14.82,9.87-22.18,5.97-13.1,8.84-26.92,10.84-41.08,2.23-15.75,5.45-31.05,10.5-46.15,2.71-8.1,5.74-16.08,8.85-24.03,1.2-3.07,2.21-6.32,3.75-9.24s3.2-5.69,4.78-8.54c7.27-13.02,14.47-26.08,21.59-39.19,9.46-17.4,18.8-34.87,27.85-52.48,7.84-15.25,15.64-30.58,22.39-46.34,2.41-5.63,4.48-11.3,6.28-17.16,3.78-12.29,7.71-24.53,11.42-36.84,8.4-27.93,16.09-56.4,19.1-85.48,.7-6.75,1.1-13.52,1.12-20.3,0-1.93-3-1.93-3,0-.07,28.51-6.59,56.81-14.1,84.17-3.61,13.14-7.6,26.17-11.66,39.18-2.77,8.87-5.2,17.93-8.42,26.65-5.1,13.83-11.84,27.11-18.43,40.27-8.66,17.31-17.69,34.44-26.85,51.49-7.98,14.86-16.07,29.66-24.26,44.41-3.54,6.39-7.53,12.68-10.75,19.24-1.46,2.98-2.5,6.27-3.71,9.36-1.53,3.9-3.04,7.81-4.5,11.74-2.91,7.83-5.63,15.75-7.93,23.78-4.02,14.09-5.81,28.41-8.14,42.83-1.11,6.84-2.6,13.6-4.72,20.2-2.48,7.71-5.99,14.87-9.48,22.15-2.84,5.92-5.43,11.97-6.79,18.42-1.02,4.85-1.82,9.75-2.67,14.63-1.81,10.45-3.57,20.96-6.43,31.19-.7,2.49-1.28,4.88-3.41,6.51-1.86,1.43-4.45,2.45-6.82,2.05-3.47-.59-3.65-2.97-3.7-5.84-.15-7.82,.62-15.69,1.27-23.48,.69-8.31,1.49-16.62,2.39-24.91,.14-1.25,.27-2.5,.42-3.75,.05-.45,.11-.91,.16-1.36,.04-.31,.1-.76,.08-.59,.27-1.89-2.62-2.7-2.89-.8h0Z"/><path class="cls-3" d="M413.17,257.08c1.47,6.41,2.83,12.86,4.54,19.21s3.88,12.56,6.17,18.72c.67,1.79,3.57,1.02,2.89-.8-2.29-6.16-4.46-12.37-6.17-18.72s-3.07-12.8-4.54-19.21c-.43-1.88-3.32-1.08-2.89,.8h0Z"/><path class="cls-3" d="M326.17,320.54c16.35-.22,32.68,1.05,49.03,1.03,7.01-.01,13.98-.54,20.98-.71,5.58-.14,11.72-.45,17.1,1.27,6.1,1.94,8.65,7.82,12.96,12.01,1.39,1.35,3.51-.77,2.12-2.12-3.82-3.72-6.26-8.83-11.09-11.44-5.24-2.83-11.75-2.77-17.55-2.76-6.7,.01-13.38,.6-20.07,.71-8.33,.15-16.66-.12-24.99-.41-9.49-.34-18.99-.7-28.49-.58-1.93,.03-1.93,3.03,0,3h0Z"/><path class="cls-2" d="M270.55,418.06s2.88-1.08,7.43,22.05,3.79,68.61,5.69,85.67,17.44,74.83,18.2,84.61,2.51,91.97-21.04,199.28-22.42,221.38-12.82,272.77,32.3,206.12,34.22,243.39-14.46,96.56,7.57,188.61,18.07,154.73,11.86,194.82-26.5,66.64-28.5,94.31-8.21,34.36-5.39,41.14,9.41,5.92,9.41,5.92"/><path class="cls-3" d="M300.27,1826.07l-2.51,14.39c-.72,4.14-1.44,8.08-.36,12.22,.78,2.99,2.67,5.39,5.44,6.79,3.2,1.63,7.37,1.09,10.33-.83,1.62-1.04,.11-3.64-1.51-2.59-2.48,1.6-5.69,1.91-8.22,.3-2.2-1.4-3.06-3.56-3.47-6.05-.62-3.81,.45-7.7,1.11-11.45,.7-4,1.39-8,2.09-12,.33-1.89-2.56-2.7-2.89-.8h0Z"/><path class="cls-3" d="M314.14,1835.49c-.62,4.03-1.07,8.09-1.62,12.13-.57,4.25-1.8,8.85-.27,13.04,1.24,3.39,4.01,5.87,7.34,7.15s7.94,1.39,10.91-.84c1.53-1.14,.03-3.75-1.51-2.59-2.53,1.89-6.41,1.6-9.15,.3s-4.79-3.79-5.22-6.88c-.5-3.6,.54-7.43,1.01-10.99s.87-7.02,1.4-10.52c.29-1.89-2.6-2.7-2.89-.8h0Z"/><path class="cls-3" d="M332.12,1840.94c-.85,4.22-1.27,8.5-1.91,12.75-.59,3.95-1.66,7.9-1.65,11.92,.02,3.71,1.23,7.19,4.12,9.62,2.58,2.17,6.09,3.73,9.52,3.48,4.06-.3,7.37-2.22,9.9-5.37,1.2-1.49-.91-3.63-2.12-2.12-1.88,2.34-4.09,3.98-7.11,4.42s-5.86-.7-8.07-2.52c-5.58-4.6-2.55-12.84-1.67-18.84,.61-4.18,1.04-8.39,1.87-12.54,.38-1.89-2.51-2.69-2.89-.8h0Z"/><path class="cls-3" d="M354.98,1845.23c-1.07,9.73-6.92,20.83-4.19,30.63,2.1,7.55,7.02,10.58,14.2,12.54,6.74,1.84,13.13,1.28,18.42-3.65,6.58-6.14,9.53-14.63,10.64-23.34,.71-5.59,1.04-11.2,2.35-16.69s3.23-10.56,4.82-15.85c3.32-11.11,3.01-20.99,.65-32.24-5.01-23.9-5.62-48.27,2.44-71.62,3.65-10.57,8.64-20.81,10.3-31.97,1.44-9.72-.19-19.36-4.73-28.07-2.6-4.99-6.02-9.49-8.64-14.46-3.04-5.79-4.25-12.06-4.09-18.57,.11-4.63,.56-9.26,1-13.86,2.88-30.32,7.41-60.48,11.04-90.71s7.51-59.72,5.18-89.66c-1.66-21.44-5.44-42.67-6.97-64.13-.6-8.43-.98-17.11,.43-25.48,1.07-6.34,3.36-12.51,5.22-18.65,3.77-12.46,6.6-25,7.97-37.96,2.12-20.12,1.53-40.43,1.47-60.63-.12-40.64-1.08-81.95,4.26-122.33,3.54-26.8,4.86-53.86,6.13-80.84,1.11-23.37,1.97-46.76,2.62-70.15,.04-1.29,.07-2.58,.11-3.87,.05-1.93-2.95-1.93-3,0-1.16,44.99-2.54,90.15-6.6,134.98-1.19,13.13-3.22,26.15-4.23,39.29-1.55,20.09-2,40.26-2.2,60.41-.2,20.41-.07,40.83-.03,61.24,.04,18.49-.12,37.08-3.42,55.33-2.14,11.84-5.9,23.22-9.29,34.74-4.49,15.27-2.92,31.37-1.21,46.98,2.33,21.33,5.78,42.58,6.5,64.06,.42,12.45-.58,24.93-1.69,37.32-2.82,31.54-7.21,62.92-11.15,94.33-1.61,12.82-3.24,25.66-4.38,38.53-.46,5.18-1.04,10.51-.66,15.71,.78,10.51,6.25,18.14,11.41,26.96,6.42,10.96,7.92,22.75,4.78,35.04-2.74,10.71-7.74,20.66-10.8,31.26-6.03,20.88-5.71,43.04-1.36,64.2,1.24,6.01,2.76,12.04,2.8,18.22s-1.47,11.72-3.22,17.37c-1.56,5.01-3.35,9.95-4.52,15.08s-1.49,10.08-2.09,15.14c-1.13,9.5-5.08,23.08-15.62,26.14-3.62,1.05-7.32,.25-10.83-.79-5.5-1.63-8.98-3.74-10.88-9.5-1.73-5.27,.01-11.14,1.29-16.34,1.15-4.69,2.27-9.33,2.8-14.14,.21-1.92-2.79-1.9-3,0h0Z"/><path class="cls-2" d="M444.2,954.88s-11.05,.13-27.67-11.24c-18.46-12.63-48.56-39.37-48.56-39.37"/><circle class="cls-2" cx="541.72" cy="509.25" r="7.81"/><path class="cls-3" d="M533.5,610.37c-22.85-16.5-43.24-36.1-60.23-58.6-2.07-2.74-4.39-5.33-7.76-6.4-3.01-.96-6.71-.78-9.14,1.42-1.43,1.3,.69,3.42,2.12,2.12,1.91-1.73,5.4-1.23,7.48-.1,2.67,1.45,4.37,4.06,6.15,6.41,3.92,5.17,8.04,10.2,12.34,15.07,8.98,10.15,18.73,19.6,29.09,28.32,5.95,5.02,12.11,9.8,18.42,14.35,1.57,1.13,3.07-1.47,1.51-2.59h0Z"/><path class="cls-3" d="M555.59,1279.51c-.45,8.95-2.95,17.7-7.26,25.56-.93,1.69,1.66,3.21,2.59,1.51,4.58-8.33,7.19-17.58,7.67-27.07,.1-1.93-2.9-1.92-3,0h0Z"/><path class="cls-3" d="M490.12,1287.16c-.33,7.92,.87,15.86,3.55,23.31,.65,1.8,3.55,1.03,2.89-.8-2.6-7.23-3.77-14.84-3.45-22.52,.08-1.93-2.92-1.93-3,0h0Z"/><path class="cls-3" d="M528.5,120.49c1.48-2.61,6.17-8.8,8.98-4,1.1,1.87,1.2,4.18,1.34,6.29,.18,2.82,.35,5.64,.39,8.47,.08,5.67-.29,11.43-2.05,16.86-1.35,4.15-3.61,8.11-6.3,11.53-2.92,3.72-6.7,7.37-11.39,8.64-1.86,.5-1.07,3.4,.8,2.89,4.83-1.31,8.85-4.77,12-8.54,3.31-3.96,6.03-8.53,7.68-13.43,2.08-6.19,2.41-12.9,2.23-19.37-.09-3.1-.19-6.24-.54-9.32-.27-2.37-.79-4.89-2.43-6.72-1.9-2.11-4.83-2.51-7.34-1.3-2.66,1.29-4.55,3.99-5.96,6.49-.95,1.68,1.64,3.2,2.59,1.51h0Z"/><path class="cls-3" d="M495.52,218.74c.35,24.01,11.4,51.16,32.7,63.64,11.87,6.96,25.24,11.45,38.14,16.07,16.27,5.82,32.65,11.38,48.6,18.04,15.16,6.34,30.58,13.62,43.27,24.23,12.55,10.48,19.83,24.54,23.87,40.22,4.49,17.42,5.43,35.6,5.71,53.52,.23,14.98-.56,30.11,.82,45.05,.59,6.43,2.34,12.53,3.76,18.81,2.11,9.33,3.84,18.75,5.36,28.19,3.18,19.79,5.42,39.73,7.31,59.68,1.5,15.82,2.69,31.67,4.06,47.51,.68,7.83,1,15.79,3.8,23.2,4.86,12.88,10.95,25.3,16.06,38.09,8.42,21.05,15.17,42.58,20.69,64.56,9.27,36.9,21.64,73.2,35.87,108.48,2.02,5,4.21,9.71,7.66,13.94,7.01,8.62,16.6,14.56,25.92,20.37,10.09,6.29,19.44,12.88,27.17,22.03,7.12,8.42,13.03,17.78,20.11,26.23,3.57,4.26,7.54,7.98,11.59,11.77s9.92,10.26,4.81,15.96c-8.23,9.18-22.96,.95-30.29-5.29-6.74-5.74-12.28-12.73-18.82-18.68-7.09-6.45-14.55-10.09-23.9-12.09-5.65-1.21-10.91-2.76-15.23-6.8-4-3.74-6.83-8.49-9.59-13.16-.98-1.66-3.58-.15-2.59,1.51,5,8.47,10.58,16.68,20.4,19.81,5.64,1.8,11.63,2.19,17.05,4.71,4.2,1.95,7.95,4.73,11.38,7.82,12.28,11.04,24.78,30.82,43.81,28.93,8.55-.85,15.79-8.56,11.45-17.16-2.21-4.38-6.28-7.55-9.81-10.81-4.13-3.82-7.81-8.08-11.27-12.51-6.91-8.84-12.99-18.35-20.71-26.54s-18.1-14.53-27.99-20.77-19.85-13.14-25.44-23.54c-1.76-3.27-3.02-6.98-4.39-10.44-6.38-16.13-12.3-32.45-17.81-48.9-3.89-11.6-7.56-23.28-10.94-35.04-3.61-12.57-6.53-25.32-10.08-37.9-5.64-19.96-12.75-39.46-20.82-58.56-2.81-6.65-5.74-13.24-8.58-19.87-1.69-3.95-3.55-7.98-4.54-12.18-2.26-9.65-2.25-20.15-3.06-29.99-3.1-37.96-6.26-76.12-13.7-113.53-1.55-7.81-3.97-15.52-5.2-23.37-.99-6.31-1.09-12.77-1.19-19.14-.25-17.11,.2-34.22-.99-51.3-1.2-17.23-3.76-34.88-11.05-50.69-6.43-13.94-17.04-24.24-29.83-32.43-28.82-18.44-62.71-27.41-94.43-39.43-12.22-4.63-25.42-9.46-34.92-18.8-11.93-11.74-18.11-28.36-20.45-44.67-.42-2.89-.75-5.84-.8-8.77-.03-1.93-3.03-1.93-3,0h0Z"/><path class="cls-3" d="M471.78,256.28c-3.89,16.9-8.87,33.53-14.91,49.78-.67,1.81,2.23,2.59,2.89,.8,6.04-16.25,11.02-32.88,14.91-49.78,.43-1.88-2.46-2.68-2.89-.8h0Z"/><path class="cls-3" d="M561.67,317.54c-16.77-.23-33.5,1.12-50.27,1.02-6.96-.04-13.89-.6-20.85-.73-5.76-.1-12.22-.36-17.7,1.71-2.92,1.1-5.35,2.91-7.37,5.29s-3.76,4.98-6.01,7.17c-1.39,1.35,.74,3.47,2.12,2.12,3.73-3.63,6.12-8.81,10.94-11.2,2.49-1.24,5.31-1.65,8.06-1.87,2.94-.24,5.9-.27,8.84-.24,6.75,.07,13.48,.65,20.24,.73,8.09,.1,16.17-.17,24.25-.46,9.25-.33,18.5-.67,27.75-.55,1.93,.03,1.93-2.97,0-3h0Z"/><path class="cls-2" d="M618.16,418.06s-3.75-1.08-8.3,22.05c-4.55,23.12-3.79,68.61-5.69,85.67s-17.44,74.83-18.2,84.61-2.51,91.97,21.04,199.28c23.55,107.31,22.42,221.38,12.82,272.77-9.6,51.39-32.3,206.12-34.22,243.39s14.46,96.56-7.57,188.61c-22.02,92.05-18.07,154.73-11.86,194.82s26.5,66.64,28.5,94.31c2,27.67,7.44,38.82,2.17,44.47s-10.5-2.05-10.5-2.05"/><path class="cls-3" d="M529.7,1843.71l1.64,17.62c.5,5.33,1.94,11.59,.76,16.92-1.87,8.46-17.43,10.17-23.58,5.98-9.22-6.27-11.24-18.01-12.32-28.22s-4.33-19.6-7.14-29.52c-1.64-5.78-2.6-11.6-2.11-17.62s2.17-12.14,3.31-18.19c2.06-10.91,2.98-22.08,2.44-33.18s-2.36-21.48-5.75-31.72-8.14-19.83-10.26-30.34c-2.56-12.71,.55-23.91,7.25-34.76,5.38-8.7,9.76-16.66,9.77-27.18s-1.57-21.36-2.8-31.88c-3.62-31.03-8.03-61.97-11.44-93.03-1.55-14.16-2.99-28.37-3.61-42.61-.74-16.84,.85-33.6,2.84-50.3,2.27-19.11,5.75-38.49,5.17-57.8-.38-12.67-4.87-24.19-8.26-36.25-9.49-33.79-7.27-69.25-7.23-103.97,.04-38.01-.01-76.17-4.93-113.92-3.45-26.47-4.44-53.34-5.67-79.98-1.02-22.12-1.82-44.26-2.45-66.4-.03-1.23-.07-2.46-.1-3.68-.05-1.93-3.05-1.93-3,0,1.19,46.16,2.48,92.57,6.94,138.55,1.43,14.74,3.57,29.34,4.48,44.14,1.28,20.74,1.59,41.54,1.7,62.32s-.2,41.62-.04,62.43c.13,17.19,1.11,34.5,4.88,51.31,2.65,11.84,7.59,23.25,9.73,35.17,3.27,18.23-.46,37.92-2.72,56.06-2.36,18.92-4.96,38.02-4.5,57.13,.33,13.82,1.67,27.62,3.1,41.35,3.37,32.22,7.95,64.29,11.77,96.45,1.3,10.97,2.8,22.03,3.12,33.08,.15,5.11-.45,10.21-2.29,15-2.32,6.04-6.5,11.2-9.62,16.83-5,9.01-7.01,18.91-5.58,29.14,1.5,10.76,6.18,20.68,9.8,30.82,4.11,11.51,6.38,23.54,6.78,35.76,.4,12.05-.96,23.95-3.44,35.72-2.35,11.19-3.34,21.19-.17,32.34,1.36,4.78,3.09,9.45,4.44,14.24,1.7,6.04,2.28,12.14,3.01,18.35,1.03,8.81,3.43,16.91,9.55,23.59,5.23,5.71,11.71,6.84,19.03,5.16,6.85-1.58,12.13-3.62,13.07-11.35,.63-5.21-.45-10.75-.93-15.94-.55-5.87-1.09-11.75-1.64-17.62-.18-1.91-3.18-1.92-3,0h0Z"/><path class="cls-2" d="M444.2,954.88s9.95,.13,27.12-11.24c18.73-12.41,48.56-39.37,48.56-39.37"/><circle class="cls-2" cx="346.12" cy="509.25" r="7.81"/><circle class="cls-2" cx="444.2" cy="739.65" r="7.81"/><path class="cls-3" d="M355.85,612.96c22-15.88,41.99-34.56,58.57-56.07,2.02-2.62,3.89-5.85,6.73-7.67,2.19-1.4,6.03-2.26,8.18-.31,1.43,1.29,3.56-.82,2.12-2.12-2.19-1.99-5.32-2.27-8.12-1.68-3,.62-5.47,2.57-7.39,4.89-2.08,2.51-3.94,5.19-5.97,7.74s-4.28,5.28-6.5,7.86c-9.1,10.57-19.05,20.39-29.65,29.46-6.29,5.38-12.8,10.48-19.51,15.33-1.55,1.12-.06,3.72,1.51,2.59h0Z"/><path class="cls-3" d="M329.26,1279.51c.48,9.49,3.1,18.74,7.67,27.07,.93,1.69,3.52,.18,2.59-1.51-4.32-7.85-6.81-16.6-7.26-25.56-.1-1.92-3.1-1.93-3,0h0Z"/><path class="cls-3" d="M394.72,1287.16c.32,7.68-.85,15.29-3.45,22.52-.65,1.82,2.24,2.6,2.89,.8,2.68-7.46,3.89-15.4,3.55-23.31-.08-1.92-3.08-1.93-3,0h0Z"/><path class="cls-3" d="M361.93,118.97c-2.24-3.95-6.91-9.47-11.96-6.32-2.05,1.28-3.04,3.65-3.49,5.93-.56,2.9-.6,5.94-.73,8.88-.3,6.66-.18,13.46,1.6,19.93,1.35,4.93,3.84,9.56,6.93,13.6,3.38,4.43,7.77,8.67,13.28,10.16,1.87,.51,2.66-2.39,.8-2.89-4.1-1.11-7.45-4.05-10.18-7.19-2.91-3.35-5.35-7.3-6.95-11.45-1.96-5.09-2.54-10.61-2.6-16.03-.03-2.9,.09-5.81,.26-8.71,.14-2.33,.15-4.73,.86-6.98,.64-2.05,2.33-3.83,4.62-2.88s3.82,3.41,4.98,5.45c.95,1.68,3.55,.17,2.59-1.51h0Z"/><path class="cls-3" d="M47.61,961.77c-10.18,23.72-22.27,46.6-34.21,69.47-2.7,5.17-6.8,11.07-4.13,17.06,2.24,5.02,7.75,7.24,12.97,6.39,6.32-1.03,11.14-5.72,14.72-10.72,3.97-5.54,7.4-11.54,10.62-17.54,3.48-6.49,6.63-13.15,10.29-19.54,3.45-6.02,6.71-12.06,8.53-18.79,.5-1.87-2.39-2.66-2.89-.8-1.55,5.73-4.16,10.95-7.09,16.09s-5.64,10.4-8.36,15.68c-3.01,5.85-6.16,11.61-9.65,17.19-3.2,5.1-6.42,10.6-11.8,13.68-4.43,2.54-10.76,3.06-13.95-1.69-3.41-5.05,.97-10.95,3.34-15.49,5.68-10.87,11.34-21.74,16.85-32.7,6.09-12.11,12.02-24.31,17.36-36.77,.75-1.76-1.83-3.29-2.59-1.51h0Z"/><path class="cls-3" d="M57.58,985.99c14.68,7.39,31.37,10.63,47.75,9.21,4.68-.41,9.33-1.18,13.88-2.32,1.87-.47,1.08-3.36-.8-2.89-15.38,3.84-31.71,3.28-46.82-1.5-4.3-1.36-8.48-3.06-12.51-5.09-1.72-.87-3.24,1.72-1.51,2.59h0Z"/><path class="cls-3" d="M82.76,993.68c-4.06,14.97-9.01,29.58-14.18,44.19-2.1,5.93-3.85,12.01-6.39,17.78-2.4,5.44-5.57,11.03-10.46,14.62-3.84,2.82-10.94,3.17-12.53-2.36-.66-2.3-.35-4.83,.04-7.15,.48-2.85,1.22-5.65,2.07-8.4,1.12-3.63,2.63-7.08,3.98-10.63s2.67-7.25,3.97-10.88c2.89-8.08,5.61-16.22,8.62-24.25,.68-1.81-2.22-2.59-2.89-.8-2.75,7.36-5.26,14.82-7.89,22.22-1.44,4.05-2.88,8.1-4.4,12.12-1.35,3.59-2.74,6.6-4.01,10.56-.92,2.87-1.71,5.79-2.25,8.75-.47,2.62-.83,5.33-.41,7.99,.9,5.68,5.99,8.39,11.4,7.73,6.5-.8,11.32-6.93,14.42-12.22,3.29-5.61,5.41-11.83,7.47-17.98,2.37-7.05,4.99-14.01,7.37-21.05,2.64-7.8,5.08-15.67,7.33-23.6,.55-1.94,1.09-3.89,1.62-5.84s-2.39-2.66-2.89-.8h0Z"/><path class="cls-3" d="M77.19,1013.68c-.37,3.17-1.15,6.63-1.85,9.87-.94,4.36-1.94,8.72-2.88,13.08s-1.89,8.87-2.61,13.34c-.53,3.26-1.09,6.65-.93,9.97,.12,2.53,.75,5.14,1.99,7.36s2.98,3.42,5.38,4.01c4.64,1.13,9.33,.21,12.52-3.51,2.96-3.45,4.6-7.93,6.16-12.13,1.74-4.69,2.93-9.39,3.94-14.28,3.13-15.27,5.59-30.67,8.88-45.91,.41-1.88-2.48-2.69-2.89-.8-2.78,12.85-4.96,25.81-7.45,38.71-1.9,9.82-3.83,19.63-8.41,28.63-1.91,3.76-4.67,6.89-9.19,6.78-1.89-.04-4.35-.37-5.62-1.91-1.46-1.77-2.13-4.37-2.28-6.62-.21-3.06,.28-6.2,.76-9.22,.66-4.13,1.5-8.24,2.38-12.33,1.78-8.29,4.13-16.6,5.12-25.04,.22-1.91-2.78-1.9-3,0h0Z"/><path class="cls-3" d="M780.92,995.47c.85,5.97,1.52,13.81,2.14,20.41,.92,9.75,1.83,19.53,2.13,29.31,.07,2.35,.49,5.48-.24,7.67-.69,2.05-3.71,2.97-6.19,2.4s-5-2.02-6.1-4.27c-1.41-2.89-1.95-6.39-2.67-9.49-.66-2.86-1.4-5.7-2-8.58-1.18-5.72-2.12-11.5-3.12-17.25-.91-5.26-1.73-10.57-2.92-15.78-1.81-7.95-5.56-15.25-9.1-22.54-3.78-7.8-6.89-15.8-9.02-24.21-1.82-7.17-2.9-14.48-3.94-21.79-2.47-17.44-6.41-34.25-12.28-50.88-3.11-8.81-6.54-17.51-9.99-26.2-.44-1.11-.83-1.97-1.4-2.97-5.57-9.88-11.11-19.78-16.62-29.69-9.66-17.36-19.26-34.76-28.74-52.22-9.54-17.56-19-35.16-28.06-52.98-5.65-11.11-11.76-22.33-15.12-34.39-5.74-20.57-9.05-41.92-12.66-62.94-3.63-21.12-6.85-42.32-10.78-63.39-.56-2.99-1.13-5.98-1.81-8.94-.43-1.88-3.32-1.09-2.89,.8,4.21,18.45,6.7,37.36,9.83,56.01,3.89,23.21,7.64,46.52,12.96,69.45,1.49,6.42,3.05,12.9,5.56,19.01s5.14,11.47,7.92,17.1c8.58,17.4,17.75,34.51,26.95,51.59,9.92,18.4,19.99,36.72,30.14,55,6.52,11.75,13.07,23.48,19.66,35.19,3.31,5.87,5.42,12.29,7.82,18.59,6.63,17.35,12.3,34.97,15.25,53.34,2.52,15.74,4.24,31.33,10.22,46.26,3.29,8.21,7.85,15.85,10.95,24.14,2.12,5.67,3.13,11.59,4.18,17.53,2.13,12.05,4.06,24.12,7.17,35.97,.66,2.5,1.28,5.36,2.99,7.38,1.61,1.9,3.92,3.25,6.3,3.93,3.99,1.15,9.26-.09,10.47-4.62,.7-2.62,.36-5.74,.28-8.41-.15-4.7-.47-9.39-.83-14.07-.74-9.75-1.67-19.48-2.72-29.2-.25-2.35-.49-4.7-.82-7.04-.27-1.9-3.16-1.09-2.89,.8h0Z"/><path class="cls-3" d="M838.51,963.28c9.61,22.4,20.95,44.05,32.22,65.65,1.34,2.57,2.69,5.15,4.03,7.72s3.02,5.51,2.52,8.55c-.86,5.28-6.44,7.51-11.2,6.34-6-1.47-10.11-6.5-13.33-11.44-3.57-5.47-6.87-11.1-9.92-16.87-3.21-6.07-6.17-12.25-9.59-18.21s-6.32-11.38-8.04-17.74c-.5-1.86-3.4-1.07-2.89,.8,1.61,5.97,4.34,11.45,7.39,16.8s6.06,11.25,9.01,16.94c3.21,6.2,6.66,12.24,10.39,18.14,3.35,5.31,7.23,10.73,13.14,13.38,5.11,2.29,11.42,2.18,15.37-2.25,1.71-1.92,2.75-4.39,2.76-6.98,.02-3.24-1.55-6.2-3.01-9-5.94-11.38-11.89-22.75-17.68-34.21-6.51-12.89-12.87-25.88-18.57-39.16-.76-1.77-3.34-.24-2.59,1.51h0Z"/><path class="cls-3" d="M829.62,983.4c-14.16,7.13-30.23,10.14-46.02,8.81-4.49-.38-8.93-1.14-13.3-2.23-1.87-.47-2.67,2.42-.8,2.89,15.95,3.98,32.95,3.43,48.62-1.56,4.47-1.42,8.82-3.22,13.02-5.33,1.72-.87,.21-3.46-1.51-2.59h0Z"/><path class="cls-3" d="M803.06,994.48c2.16,7.95,4.5,15.85,7.05,23.69,2.41,7.42,5.15,14.72,7.68,22.1,2.14,6.21,4.05,12.52,6.86,18.48s6.47,11.66,12.01,14.9c4.57,2.67,11.57,2.32,14.64-2.44s1.26-11.24,0-16.13c-.75-2.88-1.65-5.72-2.71-8.5-.41-1.08-.85-2.14-1.31-3.19-.07-.16-.1-.23,0-.01-.04-.11-.09-.21-.13-.32-.12-.3-.24-.59-.35-.89-1.38-3.52-2.65-7.09-3.92-10.66-2.91-8.11-5.71-16.26-8.64-24.36-.16-.45-.33-.9-.49-1.35-.67-1.79-3.57-1.02-2.89,.8,2.6,6.95,4.97,13.99,7.45,20.99,1.44,4.05,2.88,8.09,4.37,12.12,1.09,2.93,2.36,5.78,3.42,8.72,1.87,5.15,3.7,10.81,3.79,16.34,.03,2.2-.4,4.56-2.16,6.06s-4.22,1.66-6.37,1.35c-3.18-.45-5.7-2.78-7.78-5.07s-3.77-4.92-5.21-7.65c-2.88-5.49-4.78-11.43-6.75-17.29-2.58-7.68-5.47-15.25-8-22.95-2.77-8.44-5.32-16.95-7.65-25.53-.51-1.86-3.4-1.07-2.89,.8h0Z"/><path class="cls-3" d="M808.52,1013.68c.86,7.35,2.83,14.59,4.41,21.8,.92,4.21,1.83,8.42,2.59,12.66,.61,3.4,1.21,6.85,1.29,10.31,.04,1.83-.18,3.61-.75,5.36-.72,2.2-1.8,3.88-4.09,4.51-2.04,.56-4.31,.71-6.34,0s-3.55-2.4-4.71-4.16c-2.3-3.5-3.74-7.67-5.1-11.6-1.63-4.71-2.62-9.51-3.6-14.39-2.9-14.48-5.27-29.06-8.39-43.5-.41-1.89-3.3-1.09-2.89,.8,2.91,13.48,5.18,27.09,7.83,40.62,1.07,5.48,2.05,10.99,3.84,16.3,1.42,4.21,2.95,8.6,5.21,12.45,2.48,4.21,6.26,7.17,11.33,6.94,2.21-.1,4.81-.54,6.59-1.94,1.9-1.5,2.95-4,3.52-6.29,.91-3.59,.51-7.24,.02-10.85-.57-4.2-1.4-8.37-2.27-12.53-1.06-5.07-2.22-10.12-3.32-15.18-.81-3.71-1.74-7.66-2.16-11.32-.22-1.89-3.22-1.92-3,0h0Z"/><path class="cls-3" d="M581.79,1826.54c.7,4,1.39,8,2.09,12,.65,3.75,1.73,7.63,1.11,11.45-.41,2.49-1.27,4.64-3.47,6.05-2.52,1.62-5.75,1.3-8.22-.3-1.63-1.05-3.13,1.54-1.51,2.59,2.96,1.91,7.14,2.47,10.33,.83,2.76-1.42,4.66-3.8,5.44-6.79,1.08-4.15,.36-8.09-.36-12.22-.84-4.8-1.67-9.6-2.51-14.39-.33-1.9-3.22-1.09-2.89,.8h0Z"/><path class="cls-3" d="M567.93,1835.96c.53,3.5,.94,7.01,1.4,10.52s1.51,7.39,1.01,10.99c-.43,3.08-2.42,5.56-5.22,6.88s-6.61,1.6-9.15-.3c-1.55-1.16-3.04,1.45-1.51,2.59,2.92,2.19,7.43,2.12,10.73,.91s6.26-3.77,7.52-7.22c1.51-4.13,.33-8.64-.24-12.84s-1.02-8.23-1.64-12.33c-.29-1.9-3.18-1.09-2.89,.8h0Z"/><path class="cls-3" d="M549.95,1841.42c.74,3.66,1.16,7.35,1.66,11.05,.47,3.48,1.32,6.91,1.66,10.4,.31,3.2,.15,6.65-2.21,9.09-1.97,2.04-4.96,3.53-7.83,3.46-3.47-.08-6.14-1.89-8.26-4.52-1.21-1.5-3.32,.63-2.12,2.12,2.17,2.7,4.97,4.64,8.44,5.19s6.94-.38,9.82-2.4c3.08-2.16,4.83-5.19,5.21-8.94,.4-3.95-.64-7.91-1.3-11.78-.81-4.81-1.21-9.68-2.18-14.48-.38-1.89-3.27-1.09-2.89,.8h0Z"/><path class="cls-1" d="M205.06,651.47s17.75,10.3,20.58,13.92"/><path class="cls-1" d="M667.09,670.1s16.94-11.29,25.98-11.29"/></g></svg>