<?xml version="1.0" encoding="UTF-8"?><svg id="Layer_2" xmlns="http://www.w3.org/2000/svg" viewBox="0 0 273.27 331.68"><defs><style>.cls-1{}</style></defs><g id="colored"><g id="head"><path class="cls-1" d="M215.81,85.59c0,114.76-37.69,157.74-84.19,157.74S47.43,199.96,47.43,85.59C47.43,38.32,85.12,0,131.62,0s84.19,38.32,84.19,85.59Z"/><path class="cls-1" d="M214.81,118.23c1.95-3.49,5.3-7.56,9.06-6.19,3.06,1.12,3.78,5.05,4,8.3,.59,8.73,1.04,17.68-1.47,26.07s-10.45,19.63-18.92,21.82"/><path class="cls-1" d="M48.24,118.23c-1.95-3.49-5.3-7.56-9.06-6.19-3.06,1.12-3.78,5.05-4,8.3-.59,8.73-1.04,17.68,1.47,26.07,2.51,8.38,10.43,19.63,18.91,21.82"/><path class="cls-1" d="M0,298.55s46.03,35.34,131.78,33.02c104.4-2.82,141.49-29.32,141.49-29.32,0,0-57.29-16.15-68.17-31.64s-19.63-25.96-20.82-53.37c0,0-19.56,25.58-47.65,25.91s-41.65-7.54-58.3-25.91c0,0-2.49,32.24-14.09,45.33s-18.07,22.16-64.24,35.98Z"/></g></g></svg>