<?xml version="1.0" encoding="UTF-8"?><svg id="Layer_2" xmlns="http://www.w3.org/2000/svg" viewBox="0 0 172.51 1078.05"><defs><style>.cls-1{}</style></defs><g id="colored"><g id="leg"><path class="cls-1" d="M131.21,1015.41l2.93,16.79c.35,2,.7,4.03,.46,6.05-.5,4.27-1.47,6.85-5.27,8.88-2.67,1.42-8.27-.05-9.43-2.15"/><path class="cls-1" d="M134.37,1037.34s7.83,4.33,10.65-2.45-2.09-13.33-4.08-41-22.29-54.21-28.5-94.31-10.16-102.78,11.86-194.82c22.02-92.05,5.65-151.34,7.57-188.61s24.62-192,34.22-243.39S176.82,107.31,153.28,0c0,0-30.68,10.14-48.19,36.69-15.93,24.15-18.83,50.82-105.09,107.33,0,0,2.89,112.38,8.54,152.47s4.52,103.34,4.52,151.34c0,48,6.78,61.55,13.55,85.27s-5.08,68.89-6.17,109.55,16.9,147.39,18.02,179.64c.23,6.73-1.05,13.42-4.29,19.33s-7.39,11.32-10.11,17.49c-2.41,5.46-3.65,11.43-3.61,17.4,.1,14.21,7.21,27.27,11.59,40.79,6.76,20.87,7.02,43.52,2.72,65.03-1.46,7.29-2.44,14.58-2.17,22.01,.41,11.54,6.32,21.08,8.42,32.44,1.77,9.57,1.26,20.04,6.21,28.42,4.84,8.2,9.6,13.12,18.37,12.84,2.72-.09,11.15-2.68,13.15-5.77,2.54-3.92,2.28-6.48,1.85-11.13l2.47,1.49c2.56,3.25,4.37,3.16,8.01,3.47s6.9-2.19,8.98-5.41c1.36-2.12,1.43-4.9,1.32-7.53l2.64,2.43c2.06,1.65,5.24,.54,8.09-.55,3.18-1.22,2.82-1.32,4.89-4.14,.77-1.05,1.32-3.43,1.32-4.71"/></g></g></svg>