<?xml version="1.0" encoding="UTF-8"?><svg id="Layer_2" xmlns="http://www.w3.org/2000/svg" viewBox="0 0 887.78 1889.37"><defs><style>.cls-1{}</style></defs><g id="outlined_body_outline"><g><path class="cls-1" d="M417.72,276.29c1.71,6.35,3.88,12.56,6.17,18.72,.67,1.79,3.57,1.02,2.89-.8-2.29-6.16-4.46-12.37-6.17-18.72-1.71-6.35-3.07-12.8-4.54-19.21-.43-1.88-3.32-1.08-2.89,.8,1.47,6.41,2.83,12.86,4.54,19.21Z"/><path class="cls-1" d="M375.2,321.56c7.01-.01,13.98-.54,20.98-.71,5.58-.14,11.72-.45,17.1,1.27,6.1,1.94,8.65,7.82,12.96,12.01,1.39,1.35,3.51-.77,2.12-2.12-3.82-3.72-6.26-8.83-11.09-11.44-5.24-2.83-11.75-2.77-17.55-2.76-6.7,.01-13.38,.6-20.07,.71-8.33,.15-16.66-.12-24.99-.41-9.49-.34-18.99-.7-28.49-.58-1.93,.03-1.93,3.03,0,3,16.35-.22,32.68,1.05,49.03,1.03Z"/><path class="cls-1" d="M551.03,509.25c0-5.13-4.18-9.31-9.31-9.31s-9.31,4.18-9.31,9.31,4.18,9.31,9.31,9.31,9.31-4.18,9.31-9.31Zm-9.31,6.31c-3.48,0-6.31-2.83-6.31-6.31s2.83-6.31,6.31-6.31,6.31,2.83,6.31,6.31-2.83,6.31-6.31,6.31Z"/><path class="cls-1" d="M533.5,610.37c-22.85-16.5-43.24-36.1-60.23-58.6-2.07-2.74-4.39-5.33-7.76-6.4-3.01-.96-6.71-.78-9.14,1.42-1.43,1.3,.69,3.42,2.12,2.12,1.91-1.73,5.4-1.23,7.48-.1,2.67,1.45,4.37,4.06,6.15,6.41,3.92,5.17,8.04,10.2,12.34,15.07,8.98,10.15,18.73,19.6,29.09,28.32,5.95,5.02,12.11,9.8,18.42,14.35,1.57,1.13,3.07-1.47,1.51-2.59Z"/><path class="cls-1" d="M555.59,1279.51c-.45,8.95-2.95,17.7-7.26,25.56-.93,1.69,1.66,3.21,2.59,1.51,4.58-8.33,7.19-17.58,7.67-27.07,.1-1.93-2.9-1.92-3,0Z"/><path class="cls-1" d="M493.12,1287.16c.08-1.93-2.92-1.93-3,0-.33,7.92,.87,15.86,3.55,23.31,.65,1.8,3.55,1.03,2.89-.8-2.6-7.23-3.77-14.84-3.45-22.52Z"/><path class="cls-1" d="M875.03,985.07c8.54-.85,15.79-8.56,11.45-17.16-2.21-4.38-6.28-7.55-9.81-10.81-4.13-3.82-7.81-8.08-11.27-12.51-6.91-8.84-12.99-18.35-20.71-26.54-8.09-8.58-18.1-14.53-27.99-20.77-9.74-6.15-19.85-13.14-25.44-23.54-1.76-3.27-3.02-6.98-4.39-10.44-6.38-16.13-12.3-32.45-17.81-48.9-3.89-11.6-7.56-23.28-10.94-35.04-3.61-12.57-6.53-25.32-10.08-37.9-5.64-19.96-12.75-39.46-20.82-58.56-2.81-6.65-5.74-13.24-8.58-19.87-1.69-3.95-3.55-7.98-4.54-12.18-2.26-9.65-2.25-20.15-3.06-29.99-3.1-37.96-6.26-76.12-13.7-113.53-1.55-7.81-3.97-15.52-5.2-23.37-.99-6.31-1.09-12.77-1.19-19.14-.25-17.11,.2-34.22-.99-51.3-1.2-17.23-3.76-34.88-11.05-50.69-6.43-13.94-17.04-24.24-29.83-32.43-28.82-18.44-62.71-27.41-94.43-39.43-12.22-4.63-25.43-9.46-34.92-18.8-11.93-11.74-18.11-28.36-20.45-44.67-.41-2.84-.74-5.72-.79-8.59,2.22-2.84,4.32-5.88,6.3-9.14,6.51-10.73,11.75-23.66,15.72-38.7,4.7-1.36,8.63-4.75,11.72-8.44,3.31-3.96,6.03-8.53,7.68-13.43,2.08-6.19,2.41-12.9,2.23-19.37-.09-3.1-.19-6.24-.54-9.32-.27-2.37-.79-4.89-2.43-6.72-1.9-2.11-4.83-2.51-7.34-1.3-1.12,.54-2.1,1.34-2.96,2.27,.53-8.81,.8-18.03,.8-27.67,0-48.02-38.44-87.09-85.69-87.09s-85.69,39.07-85.69,87.09c0,9.75,.28,19.08,.82,28-2.44-2.68-5.72-4.58-9.17-2.42-2.05,1.28-3.04,3.65-3.49,5.93-.56,2.9-.6,5.94-.73,8.88-.3,6.66-.18,13.46,1.6,19.93,1.35,4.93,3.84,9.56,6.93,13.6,3.38,4.42,7.76,8.66,13.27,10.16,3.96,14.93,9.18,27.78,15.65,38.47,1.93,3.19,3.98,6.17,6.14,8.96,0,.05-.02,.1-.02,.15-.17,11.28-3.12,23.08-7.68,33.33-4.02,9.05-9.8,17.49-17.59,23.71-4.65,3.71-10.1,6.42-15.49,8.88-32.05,14.64-66.79,22.49-98.1,38.97-14.01,7.37-27.77,16.57-36.55,30.05-9.77,14.99-13.61,33.2-15.6,50.72-2.08,18.37-1.88,36.86-1.91,55.31-.01,7.1,0,14.24-.61,21.32-.42,4.92-1.54,9.71-2.39,14.57-5.34,30.72-8.88,61.78-13.02,92.68-1.65,12.29-3.16,24.64-5.28,36.86-1.6,9.24-5.52,17.91-8.9,26.61-7.5,19.35-14.46,38.89-20.26,58.83-6.51,22.34-11.72,45.03-18.26,67.37-8.9,30.39-18.41,60.69-28.88,90.59-7.23,20.66-30.18,28.65-46.2,40.97-9.51,7.31-16.65,16.78-23.68,26.38-3.61,4.93-7.22,9.87-11.25,14.47-3.88,4.43-8.46,8.06-12.47,12.33-3.05,3.25-5.78,7.33-5.1,12.01,.61,4.17,3.82,7.46,7.58,9.1,9.31,4.05,20.17-1.12,27.54-6.86,3.46-2.7,6.58-5.77,9.62-8.92-9.57,21.5-20.57,42.36-31.45,63.21-2.7,5.17-6.8,11.07-4.13,17.06,2.24,5.02,7.75,7.24,12.97,6.39,6.32-1.03,11.14-5.72,14.72-10.72,3.97-5.54,7.4-11.54,10.62-17.54,.08-.15,.16-.3,.24-.45-.24,.68-.48,1.37-.72,2.05-1.44,4.05-2.88,8.1-4.4,12.12-1.35,3.59-2.74,6.6-4.01,10.56-.92,2.87-1.71,5.79-2.25,8.75-.47,2.62-.83,5.33-.41,7.99,.9,5.68,5.99,8.39,11.4,7.73,6.5-.8,11.32-6.93,14.42-12.22,3.29-5.61,5.41-11.83,7.47-17.98,1.13-3.36,2.31-6.7,3.5-10.04-.12,.56-.25,1.13-.37,1.69-.96,4.43-1.89,8.87-2.61,13.34-.53,3.26-1.09,6.65-.93,9.97,.12,2.53,.75,5.14,1.99,7.36,1.21,2.17,2.98,3.42,5.38,4.01,4.64,1.13,9.33,.21,12.52-3.51,2.96-3.45,4.6-7.93,6.16-12.13,1.74-4.69,2.93-9.39,3.94-14.28,.9-4.41,1.75-8.83,2.58-13.26-.28,3.96-.52,7.92-.74,11.86-.19,3.38-.37,6.77-.27,10.16,.08,2.67,.41,4.84,2.65,6.65,3.58,2.91,8.87,1.67,12.33-.8,4.23-3.03,4.96-8.57,6.06-13.32,2.45-10.59,4.31-21.23,6.2-31.93,.86-4.89,1.64-9.84,3.16-14.58,2.48-7.73,6.52-14.82,9.87-22.18,5.97-13.1,8.84-26.92,10.84-41.08,2.23-15.75,5.45-31.05,10.5-46.15,2.71-8.1,5.74-16.08,8.85-24.03,1.2-3.07,2.21-6.32,3.75-9.24,1.52-2.88,3.2-5.69,4.78-8.54,7.27-13.02,14.47-26.08,21.59-39.19,9.46-17.4,18.8-34.87,27.85-52.48,7.84-15.25,15.64-30.58,22.39-46.34,2.41-5.63,4.48-11.3,6.28-17.16,3.78-12.29,7.71-24.53,11.42-36.84,8.4-27.93,16.09-56.4,19.1-85.48,.3-2.9,.53-5.8,.72-8.71,1.28,5.53,2.63,11.2,3.93,16.66,3.75,15.8,7.29,30.72,7.63,35.11,.06,.76,4.33,83.37-21.01,198.84-22.42,102.16-23.34,217.1-12.83,273.37,9.64,51.58,32.31,206.66,34.2,243.19,.55,10.66-.42,23.25-1.54,37.84-2.77,36.01-6.57,85.33,9.15,151.05,17.12,71.57,21,135.11,11.83,194.24-3.14,20.3-10.04,37.37-16.12,52.43-5.86,14.51-11.4,28.22-12.39,42-1,13.9-3.04,22.28-4.52,28.4-1.46,6-2.34,9.63-.75,13.43,2.29,5.5,7.07,6.89,9.98,6.89,.33,0,.63-.02,.91-.05,.04,.19,.07,.38,.12,.57,.78,2.99,2.67,5.39,5.44,6.79,2.76,1.4,6.23,1.19,9.03-.12,.1,.44,.22,.87,.38,1.3,1.24,3.39,4.01,5.87,7.34,7.15,2.74,1.05,6.32,1.29,9.16,.11,.43,2.83,1.65,5.41,3.94,7.33,2.58,2.17,6.09,3.73,9.52,3.48,3.3-.24,6.09-1.57,8.38-3.74,.07,.29,.12,.59,.2,.88,2.1,7.55,7.02,10.58,14.2,12.54,6.74,1.84,13.13,1.28,18.42-3.65,6.58-6.14,9.53-14.63,10.64-23.34,.71-5.59,1.04-11.2,2.35-16.69,1.29-5.38,3.23-10.56,4.82-15.85,3.32-11.11,3.01-20.99,.65-32.24-5.01-23.9-5.62-48.27,2.44-71.62,3.65-10.57,8.64-20.81,10.3-31.97,1.44-9.72-.19-19.36-4.73-28.07-2.6-4.99-6.02-9.49-8.64-14.46-3.04-5.79-4.25-12.06-4.09-18.57,.11-4.63,.56-9.26,1-13.86,2.88-30.32,7.41-60.48,11.04-90.71,3.57-29.7,7.51-59.72,5.18-89.66-1.66-21.44-5.44-42.67-6.97-64.13-.6-8.43-.98-17.11,.43-25.48,1.07-6.34,3.36-12.51,5.22-18.65,3.77-12.46,6.6-25,7.97-37.96,2.12-20.12,1.53-40.43,1.47-60.63-.12-40.64-1.08-81.95,4.26-122.33,3.54-26.8,4.86-53.86,6.13-80.84,1.11-23.37,1.97-46.76,2.62-70.15,.03-.92,.05-1.84,.08-2.75,5.06,1.52,8.14,1.59,8.6,1.59h.05c.42,0,3.21-.06,8.06-1.58,1.18,45.79,2.48,91.82,6.91,137.42,1.43,14.74,3.57,29.34,4.48,44.14,1.28,20.74,1.59,41.54,1.7,62.32,.11,20.81-.2,41.62-.04,62.43,.13,17.19,1.11,34.5,4.88,51.31,2.65,11.84,7.59,23.24,9.73,35.17,3.27,18.23-.46,37.92-2.72,56.06-2.36,18.92-4.96,38.02-4.5,57.13,.33,13.82,1.67,27.62,3.1,41.35,3.37,32.22,7.95,64.29,11.77,96.45,1.3,10.97,2.8,22.03,3.12,33.08,.15,5.11-.45,10.21-2.29,15-2.32,6.04-6.5,11.2-9.62,16.83-5,9.01-7.01,18.91-5.58,29.14,1.5,10.76,6.18,20.68,9.8,30.82,4.11,11.51,6.38,23.54,6.78,35.76,.4,12.05-.96,23.95-3.44,35.72-2.35,11.19-3.34,21.19-.17,32.34,1.36,4.78,3.09,9.45,4.44,14.24,1.7,6.04,2.28,12.14,3.01,18.35,1.03,8.81,3.43,16.91,9.55,23.59,5.23,5.71,11.71,6.84,19.03,5.16,6.85-1.58,12.13-3.62,13.07-11.35,.07-.56,.11-1.13,.14-1.69,1.69,1.34,3.64,2.28,5.88,2.63,3.48,.55,6.94-.38,9.82-2.4,2.88-2.02,4.58-4.81,5.1-8.22,2.79,1.15,6.28,.95,8.98-.04,3.41-1.25,6.26-3.77,7.52-7.22,.16-.43,.28-.86,.38-1.3,2.8,1.31,6.29,1.54,9.03,.12,2.76-1.42,4.66-3.8,5.44-6.79,.24-.91,.37-1.8,.45-2.69,1.23,.9,2.78,1.7,4.5,1.8,.12,0,.25,.01,.37,.01,1.86,0,3.57-.81,5.07-2.43,3.78-4.05,2.86-10.01,1.19-20.84-.99-6.4-2.21-14.37-2.96-24.76-.99-13.78-6.53-27.49-12.39-42-6.08-15.06-12.98-32.13-16.12-52.43-9.16-59.13-5.29-122.67,11.84-194.24,15.72-65.71,11.92-115.03,9.15-151.04-1.12-14.58-2.09-27.18-1.54-37.84,1.88-36.53,24.56-191.61,34.2-243.19,10.51-56.27,9.59-171.21-12.83-273.37-25.34-115.47-21.07-198.08-21.01-198.84,.34-4.38,3.88-19.31,7.63-35.1,1.82-7.66,3.74-15.74,5.44-23.26,3.62,16.98,5.97,34.31,8.83,51.41,3.89,23.21,7.64,46.52,12.96,69.45,1.49,6.42,3.05,12.9,5.56,19.01,2.39,5.81,5.14,11.47,7.92,17.1,8.58,17.4,17.75,34.51,26.95,51.59,9.92,18.4,19.99,36.72,30.14,55,6.52,11.75,13.07,23.48,19.66,35.19,3.31,5.88,5.42,12.29,7.82,18.59,6.63,17.35,12.3,34.97,15.25,53.34,2.52,15.74,4.24,31.33,10.22,46.26,3.29,8.21,7.85,15.85,10.95,24.14,2.12,5.67,3.13,11.59,4.18,17.53,2.13,12.05,4.06,24.12,7.17,35.97,.66,2.5,1.28,5.36,2.99,7.38,1.61,1.9,3.92,3.25,6.3,3.94,3.99,1.15,9.26-.09,10.47-4.62,.7-2.62,.36-5.74,.28-8.41-.15-4.7-.48-9.39-.83-14.07-.09-1.23-.2-2.46-.3-3.68,.55,2.96,1.11,5.91,1.69,8.86,1.07,5.48,2.05,10.99,3.84,16.3,1.42,4.21,2.95,8.6,5.21,12.45,2.48,4.21,6.26,7.17,11.33,6.94,2.21-.1,4.81-.54,6.59-1.94,1.9-1.5,2.95-4,3.52-6.29,.91-3.59,.51-7.24,.02-10.85-.57-4.2-1.4-8.37-2.27-12.53-.39-1.89-.81-3.77-1.23-5.66,.68,1.91,1.35,3.83,2.01,5.75,2.14,6.21,4.05,12.52,6.86,18.48,2.66,5.65,6.47,11.66,12,14.9,4.57,2.67,11.57,2.32,14.64-2.44,2.98-4.61,1.26-11.24,0-16.13-.75-2.88-1.65-5.72-2.71-8.5-.41-1.08-.85-2.14-1.31-3.19-.01-.03-.02-.05-.03-.08-.04-.09-.07-.17-.11-.26-.12-.3-.24-.59-.35-.89-1.38-3.52-2.65-7.09-3.92-10.66-.67-1.86-1.32-3.73-1.98-5.59,2.59,4.78,5.32,9.46,8.22,14.06,3.35,5.31,7.23,10.73,13.14,13.38,5.11,2.29,11.42,2.18,15.37-2.25,1.71-1.92,2.75-4.39,2.76-6.98,.02-3.24-1.56-6.2-3.01-9-5.94-11.38-11.89-22.75-17.68-34.21-5.19-10.27-10.27-20.61-15.01-31.1,8.54,8.66,18.09,16.46,30.38,15.25ZM537.48,116.49c1.1,1.87,1.2,4.18,1.34,6.29,.18,2.82,.35,5.64,.39,8.47,.08,5.67-.29,11.43-2.05,16.86-1.35,4.15-3.61,8.11-6.3,11.53-2.5,3.19-5.63,6.3-9.42,7.94,3.43-13.98,5.8-29.7,7.09-47.14,1.51-2.64,6.16-8.71,8.95-3.95Zm-179.3,44.59c-2.91-3.35-5.35-7.3-6.95-11.45-1.96-5.09-2.54-10.61-2.6-16.03-.03-2.9,.09-5.81,.26-8.71,.14-2.33,.15-4.73,.86-6.98,.64-2.05,2.33-3.83,4.62-2.88,2.27,.94,3.82,3.41,4.98,5.45,.06,.1,.12,.18,.18,.26,1.31,17.35,3.69,33.01,7.13,46.94-3.34-1.37-6.14-3.91-8.48-6.61Zm3.15-73.99c0-46.37,37.09-84.09,82.69-84.09s82.69,37.72,82.69,84.09c0,53.67-8.22,94.42-24.44,121.13-14.15,23.3-33.75,35.12-58.25,35.12s-44.27-12.19-58.25-35.26c-16.22-26.76-24.44-67.47-24.44-120.98ZM68.58,1037.87c-2.1,5.93-3.85,12.01-6.39,17.78-2.4,5.44-5.57,11.03-10.46,14.62-3.84,2.82-10.94,3.17-12.53-2.36-.66-2.3-.35-4.83,.04-7.15,.48-2.85,1.22-5.65,2.07-8.4,1.12-3.63,2.63-7.08,3.98-10.63,1.37-3.61,2.67-7.25,3.97-10.88,2.79-7.82,5.44-15.69,8.33-23.48,.09-.16,.18-.32,.27-.49,3.18-5.54,6.18-11.11,8.06-17.22,5.4,2.05,11,3.57,16.69,4.55-4.03,14.78-8.92,29.23-14.03,43.66Zm28.86-4.49c-1.9,9.82-3.83,19.63-8.41,28.63-1.91,3.76-4.67,6.89-9.19,6.78-1.89-.04-4.35-.37-5.62-1.91-1.46-1.77-2.13-4.37-2.28-6.62-.21-3.06,.28-6.2,.76-9.22,.66-4.13,1.5-8.24,2.38-12.33,1.78-8.29,4.13-16.6,5.12-25.04,.02-.17,0-.32-.02-.45,1.34-4.29,2.63-8.59,3.86-12.91,.53-1.88,1.05-3.76,1.57-5.64,6.35,.87,12.78,1.07,19.18,.56-2.72,12.66-4.88,25.44-7.34,38.15Zm718.61,30.43c-.72,2.2-1.8,3.88-4.09,4.51-2.04,.56-4.31,.71-6.34,0-2.04-.72-3.55-2.4-4.71-4.16-2.3-3.5-3.74-7.67-5.1-11.6-1.63-4.71-2.62-9.51-3.6-14.39-2.87-14.3-5.22-28.7-8.28-42.96,6.39,.51,12.83,.33,19.19-.53,1.69,6.21,3.5,12.39,5.42,18.54-.03,.14-.04,.29-.02,.45,.86,7.35,2.83,14.59,4.41,21.8,.92,4.21,1.83,8.42,2.59,12.66,.61,3.4,1.21,6.85,1.29,10.31,.04,1.83-.18,3.61-.75,5.36Zm30.03-15.4c1.87,5.15,3.7,10.81,3.79,16.34,.03,2.2-.4,4.56-2.16,6.06-1.72,1.47-4.22,1.66-6.37,1.35-3.18-.45-5.7-2.78-7.78-5.07-2.09-2.29-3.77-4.92-5.21-7.65-2.88-5.49-4.78-11.43-6.75-17.29-2.58-7.68-5.47-15.25-8-22.95-2.72-8.26-5.21-16.59-7.5-24.98,4.06-.69,8.08-1.66,12.01-2.92,1.57-.5,3.12-1.06,4.67-1.65,1.64,5.36,4.14,10.36,6.92,15.23,.5,.87,.98,1.76,1.47,2.64,2.47,6.65,4.74,13.37,7.11,20.05,1.44,4.05,2.88,8.09,4.37,12.12,1.09,2.93,2.36,5.78,3.42,8.72Zm24.65-19.49c1.34,2.57,2.69,5.15,4.03,7.72,1.35,2.59,3.02,5.51,2.52,8.55-.86,5.28-6.44,7.51-11.2,6.34-6-1.47-10.11-6.5-13.33-11.44-3.57-5.47-6.87-11.1-9.92-16.87-3.02-5.71-5.83-11.51-9-17.14-.04-.1-.07-.2-.11-.31-.09-.24-.22-.43-.38-.58-.03-.06-.06-.12-.1-.18-3.05-5.31-5.9-10.63-7.66-16.5,1.88-.79,3.73-1.64,5.55-2.55,1.72-.87,.21-3.46-1.51-2.59-14.16,7.13-30.23,10.14-46.02,8.81-4.49-.38-8.93-1.14-13.3-2.23-1.87-.47-2.67,2.43-.8,2.89,3.75,.94,7.57,1.61,11.4,2.05-.02,.17-.02,.35,.02,.54,.85,5.97,1.52,13.81,2.14,20.41,.92,9.75,1.83,19.53,2.13,29.31,.07,2.35,.49,5.48-.24,7.67-.69,2.05-3.71,2.97-6.19,2.4-2.36-.54-5-2.02-6.1-4.27-1.41-2.89-1.95-6.39-2.67-9.49-.66-2.86-1.4-5.7-2-8.58-1.18-5.72-2.12-11.5-3.12-17.25-.91-5.26-1.73-10.57-2.92-15.78-1.81-7.95-5.56-15.25-9.1-22.54-3.78-7.8-6.89-15.8-9.02-24.21-1.82-7.17-2.9-14.48-3.94-21.79-2.47-17.44-6.41-34.25-12.28-50.88-3.11-8.81-6.54-17.51-9.99-26.2-.44-1.11-.83-1.97-1.4-2.97-5.57-9.88-11.11-19.78-16.62-29.69-9.66-17.36-19.26-34.76-28.74-52.22-9.54-17.56-19-35.16-28.06-52.98-5.65-11.11-11.76-22.33-15.12-34.39-5.74-20.57-9.05-41.92-12.66-62.94-3.63-21.12-6.85-42.32-10.78-63.39-.56-2.99-1.13-5.98-1.81-8.94-.09-.38-.27-.64-.51-.82,1.83-8.35,3.24-15.54,3.74-19.98,.71-6.41,1.05-16.6,1.43-28.39,.62-19.05,1.4-42.76,4.23-57.15,3.78-19.2,6.85-20.82,6.98-20.88,0,0-.21,.09-.57-.01l.83-2.88c-.26-.07-.96-.19-1.85,.35-2.9,1.77-5.7,9.46-8.34,22.85-2.88,14.63-3.66,38.47-4.29,57.64-.38,11.73-.72,21.86-1.42,28.16-1.01,9.12-6.05,30.35-10.5,49.09-3.94,16.61-7.34,30.95-7.7,35.57-.06,.77-4.36,83.84,21.07,199.72,22.33,101.77,23.26,216.19,12.81,272.17-9.65,51.64-32.36,206.97-34.24,243.59-.56,10.85,.42,23.54,1.55,38.23,2.76,35.81,6.54,84.86-9.08,150.11-17.22,71.96-21.1,135.88-11.88,195.4,3.2,20.64,10.16,37.88,16.3,53.09,6.02,14.91,11.22,27.78,12.18,41.09,.76,10.51,2,18.54,2.99,25,1.52,9.9,2.36,15.36-.42,18.34-.98,1.05-1.96,1.52-3.06,1.47-1.88-.1-3.75-1.79-4.7-2.86-.16-1.81-.47-3.62-.8-5.47-.84-4.8-1.67-9.6-2.51-14.39-.33-1.9-3.22-1.09-2.89,.8l2.09,12c.48,2.73,1.17,5.53,1.27,8.32h-.02s.01,.03,.02,.03c.04,1.03,0,2.07-.17,3.09-.41,2.49-1.27,4.64-3.47,6.05-2.48,1.59-5.63,1.31-8.08-.22,0-2.78-.61-5.61-.98-8.32-.56-4.11-1.02-8.23-1.64-12.33-.29-1.9-3.18-1.09-2.89,.8,.53,3.5,.94,7.01,1.4,10.52,.47,3.56,1.51,7.39,1.01,10.99-.43,3.08-2.42,5.56-5.22,6.88-2.6,1.23-6.21,1.54-8.74-.06-.11-3.09-.85-6.17-1.36-9.2-.81-4.81-1.21-9.68-2.18-14.48-.38-1.89-3.27-1.09-2.89,.8,.74,3.66,1.16,7.35,1.66,11.05,.47,3.48,1.32,6.91,1.66,10.4,.31,3.2,.15,6.65-2.21,9.09-1.97,2.04-4.96,3.53-7.83,3.46-3.25-.07-5.8-1.68-7.85-4.04-.2-3.37-.74-6.78-1.04-10.04-.55-5.87-1.09-11.75-1.64-17.62-.18-1.91-3.18-1.92-3,0,.55,5.87,1.09,11.75,1.64,17.62,.31,3.32,.98,7,1.17,10.59,0,.11,0,.22,.01,.33,.09,2.06,0,4.09-.42,5.99-1.87,8.46-17.43,10.17-23.58,5.98-9.22-6.27-11.24-18.01-12.32-28.22-1.09-10.32-4.33-19.6-7.14-29.52-1.64-5.78-2.6-11.6-2.11-17.62,.5-6.15,2.17-12.14,3.31-18.19,2.06-10.91,2.98-22.08,2.44-33.18-.52-10.77-2.36-21.48-5.75-31.72-3.35-10.12-8.14-19.83-10.26-30.34-2.56-12.71,.55-23.91,7.25-34.76,5.38-8.7,9.76-16.66,9.77-27.18,.02-10.61-1.57-21.36-2.8-31.88-3.62-31.03-8.03-61.97-11.44-93.03-1.55-14.16-2.99-28.37-3.61-42.61-.74-16.84,.85-33.6,2.84-50.3,2.27-19.11,5.75-38.49,5.17-57.8-.38-12.67-4.87-24.19-8.26-36.25-9.49-33.79-7.27-69.25-7.23-103.97,.04-38.01-.01-76.17-4.93-113.92-3.45-26.47-4.44-53.34-5.67-79.98-1.02-22.12-1.82-44.26-2.45-66.4-.03-1.19-.07-2.39-.1-3.58,4.44-1.67,10.12-4.4,16.9-8.89,18.61-12.33,48.44-39.24,48.74-39.51l-2.01-2.23c-.3,.27-29.96,27.03-48.39,39.23-16.43,10.88-26.14,10.99-26.28,10.99h0v1.5s-.03-1.5-.03-1.5c-.09-.02-10.73,.02-26.81-10.98-18.17-12.43-48.11-38.99-48.42-39.25l-1.99,2.24c.3,.27,30.39,26.95,48.71,39.49,6.6,4.52,12.35,7.26,16.92,8.93-1.16,44.94-2.54,90.07-6.6,134.86-1.19,13.13-3.22,26.15-4.23,39.29-1.55,20.09-2,40.26-2.2,60.41-.2,20.41-.07,40.83-.03,61.24,.04,18.49-.12,37.08-3.42,55.33-2.14,11.84-5.9,23.22-9.29,34.74-4.49,15.27-2.92,31.37-1.21,46.98,2.33,21.33,5.78,42.58,6.5,64.06,.42,12.45-.58,24.93-1.69,37.32-2.82,31.54-7.21,62.92-11.15,94.33-1.61,12.82-3.24,25.66-4.38,38.53-.46,5.18-1.04,10.51-.66,15.71,.78,10.51,6.25,18.14,11.41,26.96,6.42,10.96,7.92,22.75,4.78,35.04-2.74,10.71-7.74,20.66-10.8,31.26-6.03,20.88-5.71,43.04-1.36,64.2,1.24,6.01,2.76,12.04,2.8,18.22,.04,5.97-1.47,11.72-3.22,17.37-1.56,5.01-3.35,9.95-4.52,15.08-1.14,4.99-1.49,10.08-2.09,15.14-1.13,9.5-5.08,23.08-15.62,26.14-3.61,1.05-7.32,.25-10.83-.79-5.5-1.63-8.98-3.74-10.88-9.5-1.73-5.26,.01-11.14,1.29-16.34,1.15-4.69,2.27-9.33,2.8-14.14,.21-1.92-2.79-1.9-3,0-.9,8.18-5.17,17.34-4.88,25.88-.04,.04-.08,.07-.11,.11-1.88,2.34-4.09,3.98-7.11,4.42-2.87,.42-5.86-.7-8.07-2.52-5.58-4.6-2.55-12.84-1.67-18.84,.61-4.18,1.04-8.39,1.87-12.54,.38-1.89-2.51-2.69-2.89-.8-.85,4.22-1.27,8.5-1.91,12.75-.54,3.62-1.48,7.24-1.62,10.91-2.53,1.6-6.15,1.3-8.75,.06-2.79-1.33-4.79-3.79-5.22-6.88-.5-3.6,.54-7.43,1.01-10.99,.46-3.51,.87-7.02,1.4-10.52,.29-1.89-2.6-2.7-2.89-.8-.62,4.03-1.07,8.09-1.62,12.13-.37,2.76-1.02,5.67-1.01,8.51-2.46,1.53-5.6,1.8-8.08,.22-2.2-1.4-3.06-3.56-3.47-6.05-.62-3.81,.45-7.7,1.11-11.45,.7-4,1.39-8,2.09-12,.33-1.89-2.56-2.7-2.89-.8-.84,4.8-1.67,9.6-2.51,14.39-.51,2.94-1.01,5.79-.88,8.68-.81,.06-5.55,.2-7.73-5.02-1.2-2.89-.46-5.97,.9-11.56,1.42-5.87,3.58-14.74,4.6-28.89,.96-13.31,6.16-26.19,12.18-41.09,6.14-15.21,13.11-32.45,16.3-53.09,9.22-59.52,5.34-123.44-11.88-195.4-15.61-65.25-11.84-114.3-9.08-150.12,1.13-14.69,2.11-27.37,1.55-38.22-1.89-36.61-24.6-191.94-34.24-243.59-10.46-55.98-9.52-170.4,12.81-272.17,25.43-115.88,21.13-198.95,21.07-199.72-.36-4.62-3.76-18.96-7.7-35.57-2.2-9.26-4.54-19.14-6.47-27.86,0-.04-.01-.07-.02-.1-1.96-8.87-3.49-16.54-4-21.13-.7-6.29-1.03-16.42-1.42-28.15-.63-19.16-1.41-43.01-4.29-57.64-4.11-20.91-6.9-22.47-7.81-22.98-.54-.3-1.13-.37-1.62-.18l1.05,2.81c-.47,.18-.83,.04-.92-.02,.26,.19,2.69,2.36,6.35,20.95,2.83,14.39,3.61,38.11,4.23,57.16,.39,11.79,.72,21.97,1.43,28.38,.52,4.68,2.06,12.42,4.04,21.34-.09,28.46-6.6,56.71-14.1,84.02-3.61,13.14-7.6,26.17-11.66,39.18-2.77,8.87-5.2,17.93-8.42,26.65-5.1,13.83-11.84,27.11-18.43,40.27-8.66,17.31-17.69,34.44-26.85,51.49-7.98,14.86-16.07,29.66-24.26,44.41-3.54,6.39-7.53,12.68-10.75,19.24-1.46,2.98-2.5,6.27-3.71,9.36-1.53,3.9-3.04,7.81-4.5,11.74-2.91,7.83-5.63,15.75-7.93,23.78-4.02,14.09-5.81,28.41-8.14,42.83-1.11,6.84-2.6,13.6-4.72,20.2-2.48,7.71-5.99,14.87-9.48,22.15-2.84,5.92-5.43,11.97-6.79,18.42-1.02,4.85-1.82,9.75-2.67,14.63-1.81,10.45-3.57,20.96-6.43,31.19-.7,2.49-1.28,4.88-3.41,6.51-1.86,1.43-4.45,2.45-6.82,2.05-3.47-.59-3.65-2.97-3.7-5.84-.15-7.82,.62-15.69,1.27-23.48,.69-8.31,1.49-16.62,2.39-24.91,.14-1.25,.27-2.5,.42-3.75,.05-.45,.11-.91,.16-1.36,.04-.31,.1-.76,.08-.59,.04-.19,.04-.37,.02-.54,3.84-.44,7.65-1.12,11.4-2.05,1.87-.47,1.08-3.36-.8-2.89-15.38,3.84-31.71,3.28-46.82-1.5-4.3-1.36-8.48-3.06-12.51-5.09-1.72-.87-3.24,1.72-1.51,2.59,1.82,.92,3.67,1.77,5.55,2.56-1.58,5.24-4,10.08-6.72,14.83-.34,.6-.67,1.2-1,1.79-.18,.16-.33,.36-.43,.62-.05,.14-.1,.27-.15,.41-2.34,4.24-4.56,8.54-6.78,12.85-3.01,5.85-6.16,11.61-9.65,17.19-3.2,5.1-6.43,10.6-11.8,13.68-4.43,2.54-10.76,3.06-13.95-1.69-3.41-5.05,.97-10.95,3.34-15.49,5.68-10.87,11.34-21.74,16.85-32.7,6.09-12.11,12.02-24.31,17.36-36.77,.14-.33,.16-.66,.1-.95,1.59-1.65,3.19-3.27,4.85-4.84,3.49-3.28,7.25-6.31,11.52-8.51,5.42-2.79,11.36-3.37,17.15-5,10.49-2.95,16.34-11.22,21.62-20.17,.98-1.67-1.61-3.18-2.59-1.51-2.85,4.83-5.79,9.77-10.01,13.55-4.96,4.44-11.07,5.54-17.34,6.94-9.52,2.14-17.01,7.21-23.91,13.96-6.77,6.61-12.75,14.26-20.64,19.63-4.57,3.11-9.83,5.49-15.42,5.77-7.27,.37-15.55-5.28-11.33-13.19,2.66-4.99,7.88-8.4,11.78-12.35,4.04-4.09,7.63-8.59,11.08-13.17,7.17-9.51,13.77-19.6,22.66-27.65,16.54-14.96,42.62-22.22,51.33-44.64,3.11-7.99,5.56-16.29,8.25-24.42,5.98-18.12,11.77-36.31,17.29-54.57,6.4-21.17,12.06-42.49,17.61-63.89,5.66-21.81,12.63-43.24,20.55-64.32,4.16-11.07,9.68-22.2,12.43-33.74,2.22-9.31,3.1-19.07,4.4-28.53,4.32-31.47,8.12-63.03,12.97-94.43,1.62-10.5,4.11-20.89,4.59-31.52,.75-16.57,0-33.19,.63-49.77,.7-18.55,2.49-37.56,8.97-55.09,6.01-16.26,16.69-28.31,31.14-37.63,29.88-19.26,65.2-28.05,98-40.87,12.53-4.9,25.29-10.2,34.52-20.36,11.01-12.12,16.87-28.28,19.1-44.3,.26-1.87,.49-3.77,.64-5.66,13.72,15.95,31.41,24.29,51.86,24.29s37.97-8.22,51.65-23.94c1.36,23.05,12.34,48.13,32.56,59.98,11.87,6.96,25.24,11.45,38.14,16.07,16.27,5.82,32.65,11.38,48.6,18.04,15.16,6.34,30.58,13.62,43.27,24.23,12.55,10.48,19.83,24.54,23.87,40.22,4.49,17.42,5.43,35.6,5.71,53.52,.23,14.98-.56,30.11,.82,45.05,.59,6.43,2.34,12.53,3.76,18.81,2.11,9.33,3.84,18.75,5.36,28.19,3.18,19.79,5.42,39.73,7.31,59.68,1.5,15.82,2.69,31.67,4.06,47.51,.68,7.83,1,15.79,3.8,23.2,4.86,12.88,10.95,25.3,16.06,38.09,8.42,21.05,15.17,42.58,20.69,64.56,9.27,36.9,21.64,73.2,35.87,108.48,2.02,5,4.22,9.71,7.66,13.94,7.01,8.62,16.6,14.56,25.92,20.37,10.09,6.29,19.44,12.88,27.17,22.03,7.12,8.42,13.03,17.78,20.11,26.23,3.57,4.26,7.54,7.98,11.59,11.77,4.23,3.95,9.92,10.26,4.81,15.96-8.23,9.18-22.96,.95-30.29-5.29-4.12-3.51-7.79-7.48-11.51-11.39-.14-.25-.31-.44-.51-.54-2.2-2.31-4.44-4.6-6.8-6.75-7.09-6.45-14.55-10.09-23.9-12.09-5.65-1.21-10.91-2.76-15.23-6.8-4-3.74-6.83-8.49-9.59-13.16-.98-1.66-3.58-.15-2.59,1.51,5,8.47,10.58,16.68,20.4,19.81,5.64,1.8,11.63,2.19,17.05,4.71,4.2,1.95,7.95,4.73,11.38,7.82,2.44,2.19,4.88,4.72,7.38,7.36,9.59,22.32,20.89,43.9,32.12,65.43Z"/><path class="cls-1" d="M459.76,306.86c6.04-16.25,11.02-32.88,14.91-49.78,.43-1.88-2.46-2.68-2.89-.8-3.89,16.9-8.87,33.53-14.91,49.78-.67,1.81,2.23,2.59,2.89,.8Z"/><path class="cls-1" d="M561.67,317.54c-16.77-.23-33.5,1.12-50.27,1.02-6.96-.04-13.89-.6-20.85-.73-5.76-.1-12.22-.36-17.7,1.71-2.92,1.1-5.35,2.91-7.37,5.29-2.02,2.39-3.76,4.98-6.01,7.17-1.39,1.35,.74,3.47,2.12,2.12,3.73-3.63,6.12-8.81,10.94-11.2,2.49-1.24,5.31-1.65,8.06-1.87,2.94-.24,5.9-.27,8.84-.24,6.75,.07,13.48,.65,20.24,.73,8.09,.1,16.17-.17,24.25-.46,9.25-.33,18.5-.67,27.75-.55,1.93,.03,1.93-2.97,0-3Z"/><path class="cls-1" d="M346.12,499.94c-5.13,0-9.31,4.18-9.31,9.31s4.18,9.31,9.31,9.31,9.31-4.18,9.31-9.31-4.18-9.31-9.31-9.31Zm0,15.62c-3.48,0-6.31-2.83-6.31-6.31s2.83-6.31,6.31-6.31,6.31,2.83,6.31,6.31-2.83,6.31-6.31,6.31Z"/><path class="cls-1" d="M444.2,730.34c-5.13,0-9.31,4.18-9.31,9.31s4.18,9.31,9.31,9.31,9.31-4.18,9.31-9.31-4.18-9.31-9.31-9.31Zm0,15.62c-3.48,0-6.31-2.83-6.31-6.31s2.83-6.31,6.31-6.31,6.31,2.83,6.31,6.31-2.83,6.31-6.31,6.31Z"/><path class="cls-1" d="M423.34,545.11c-3,.62-5.47,2.57-7.39,4.89-2.08,2.51-3.94,5.19-5.97,7.74-2.11,2.66-4.28,5.28-6.5,7.86-9.1,10.57-19.05,20.39-29.65,29.46-6.29,5.38-12.8,10.48-19.51,15.33-1.55,1.12-.06,3.72,1.51,2.59,22-15.88,41.99-34.56,58.57-56.07,2.02-2.62,3.89-5.85,6.73-7.67,2.19-1.4,6.03-2.26,8.18-.31,1.43,1.29,3.56-.82,2.12-2.12-2.19-1.99-5.32-2.27-8.12-1.68Z"/><path class="cls-1" d="M332.26,1279.51c-.1-1.92-3.1-1.93-3,0,.48,9.49,3.1,18.74,7.67,27.07,.93,1.69,3.52,.18,2.59-1.51-4.32-7.85-6.81-16.6-7.26-25.56Z"/><path class="cls-1" d="M394.16,1310.47c2.68-7.46,3.89-15.4,3.55-23.31-.08-1.92-3.08-1.93-3,0,.32,7.68-.85,15.29-3.45,22.52-.65,1.82,2.24,2.6,2.89,.8Z"/><path class="cls-1" d="M205.81,650.17c-.72-.42-1.63-.17-2.05,.54-.42,.72-.17,1.63,.54,2.05,4.87,2.83,17.97,10.77,20.15,13.55,.3,.38,.74,.58,1.18,.58,.32,0,.65-.1,.92-.32,.65-.51,.77-1.45,.26-2.11-2.93-3.74-19.17-13.23-21.01-14.3Z"/><path class="cls-1" d="M693.07,657.31c-9.38,0-26.1,11.07-26.81,11.55-.69,.46-.88,1.39-.42,2.08,.29,.43,.76,.67,1.25,.67,.29,0,.58-.08,.83-.25,.17-.11,16.67-11.04,25.14-11.04,.83,0,1.5-.67,1.5-1.5s-.67-1.5-1.5-1.5Z"/></g></g></svg>