<?xml version="1.0" encoding="UTF-8"?><svg id="Layer_2" xmlns="http://www.w3.org/2000/svg" viewBox="0 0 353.02 654.85"><defs><style>.cls-1{}</style></defs><g id="colored"><path id="torso" class="cls-1" d="M26.83,6.41S36.96,2.52,44.73,0c18.34,11.85,54.1,33.02,131.78,33.02,69.83,0,117.4-14.06,141.49-29.32,5.26,2.21,15.23,5.59,15.23,5.59,0,0,28.38,19.84,17.16,108.71,0,0-5.08,5.6-8.3,22.05s-4.82,83.34-7.03,94.06-16.56,68.93-16.85,76.21-2.35,74.06,10.1,140.63c8.19,45.66,10.53,59.82,10.53,59.82,0,0-16.11,4.61-32.89,19.42s-40.15,62.63-53.84,74.01-54.42,51.62-75.69,50.61-57.04-34.33-76.24-50.61-31.55-47.84-38.4-56.75-20.7-26.5-48.19-36.69c0,0,27.86-136.68,20.33-199.55-7.64-42.92-14.9-58.42-18.55-87.37s2.55-78.84-12.6-105.85C-6.17,83.84,7.66,17.07,26.83,6.41Z"/></g></svg>